<?xml version="1.0" encoding="utf-8"?>
<!-- Generator: Adobe Illustrator 24.3.0, SVG Export Plug-In . SVG Version: 6.00 Build 0)  -->
<svg version="1.1" id="Layer_1" xmlns="http://www.w3.org/2000/svg" xmlns:xlink="http://www.w3.org/1999/xlink" x="0px" y="0px"
	 viewBox="0 0 600 600" style="enable-background:new 0 0 600 600;" xml:space="preserve">
<style type="text/css">
	.st0{fill:none;stroke:#282828;stroke-width:2;stroke-miterlimit:10;}
	.st1{fill:none;stroke:#282828;stroke-width:3;stroke-linecap:round;stroke-miterlimit:10;stroke-dasharray:0,7;}
	.st2{fill:none;stroke:#282828;stroke-width:2;stroke-linecap:round;stroke-miterlimit:10;}
	.st3{fill:#FFFFFF;stroke:#282828;stroke-width:2;stroke-miterlimit:10;}
	.st4{fill:none;stroke:#282828;stroke-width:2;stroke-linecap:round;stroke-linejoin:round;stroke-miterlimit:10;}
	.st5{fill:none;stroke:#282828;stroke-width:2;stroke-linejoin:round;stroke-miterlimit:10;}
	.st6{fill:none;stroke:#0C0C0C;stroke-width:2;stroke-miterlimit:10;}
	.st7{fill:none;stroke:#0C0C0C;stroke-width:2;stroke-linecap:round;stroke-linejoin:round;stroke-miterlimit:10;}
	.st8{fill:#FFFFFF;stroke:#282828;stroke-width:2;stroke-linejoin:round;stroke-miterlimit:10;}
	.st9{fill:#FFFFFF;stroke:#282828;stroke-width:2;stroke-linecap:round;stroke-miterlimit:10;}
	.st10{fill:#282828;}
	.st11{fill:#E34B25;}
	.st12{fill:#EFA522;}
</style>
<path class="st0" d="M155.1,401.5c-9.2-13.4-16.6-28.1-21.9-43.8"/>
<path class="st0" d="M269.7,475.5c-23.3-4.2-45-12.9-64.1-25.2"/>
<path class="st0" d="M398.9,448.9c-11.4,7.6-23.8,13.9-36.9,18.6"/>
<path class="st0" d="M469.1,357.7c-1.6,4.7-3.4,9.3-5.3,13.8"/>
<path class="st0" d="M463.4,229.8c4.3,9.8,7.8,20.1,10.3,30.7"/>
<path class="st1" d="M198.1,157.1c29-20.8,64.6-33.1,103.1-33.1c40.8,0,78.3,13.8,108.2,36.9"/>
<path class="st0" d="M131.3,250.8c2.4-8,5.3-15.8,8.7-23.3"/>
<path class="st1" d="M464.2,87.8c64.1,49.1,105.5,126.4,105.5,213.3c0,78.4-33.6,149-87.2,198.1"/>
<path class="st0" d="M341.3,35.7c15.9,2.4,31.3,6.1,46.1,11.2"/>
<path class="st0" d="M231.6,41.8c16.3-4.4,33.2-7.2,50.6-8.4"/>
<path class="st1" d="M65.8,171.9c17.1-31,40.1-58.3,67.6-80.3"/>
<path class="st1" d="M44.4,379.9c-7.6-24.9-11.7-51.4-11.7-78.8c0-13.8,1-27.4,3.1-40.6"/>
<path class="st0" d="M165.8,533c-38.8-22.7-71.4-54.8-94.6-93.3"/>
<path class="st0" d="M409.3,547c-33.1,14.6-69.6,22.7-108.1,22.7c-13.1,0-26-0.9-38.6-2.8"/>
<g>
	<line class="st2" x1="486.8" y1="433.4" x2="499.2" y2="445.7"/>
	<line class="st2" x1="486.8" y1="445.7" x2="499.2" y2="433.4"/>
</g>
<g>
	<line class="st2" x1="490.8" y1="163.2" x2="503.1" y2="175.5"/>
	<line class="st2" x1="490.8" y1="175.5" x2="503.1" y2="163.2"/>
</g>
<g>
	<line class="st2" x1="248.6" y1="79.4" x2="261" y2="91.8"/>
	<line class="st2" x1="248.6" y1="91.8" x2="261" y2="79.4"/>
</g>
<g>
	<line class="st2" x1="51.6" y1="303.7" x2="64" y2="316"/>
	<line class="st2" x1="51.6" y1="316" x2="64" y2="303.7"/>
</g>
<g>
	<line class="st2" x1="546.6" y1="303.7" x2="558.9" y2="316"/>
	<line class="st2" x1="546.6" y1="316" x2="558.9" y2="303.7"/>
</g>
<g>
	<line class="st2" x1="148.5" y1="481.9" x2="160.9" y2="494.3"/>
	<line class="st2" x1="148.5" y1="494.3" x2="160.9" y2="481.9"/>
</g>
<g>
	<line class="st2" x1="209.5" y1="240.8" x2="221.8" y2="253.1"/>
	<line class="st2" x1="209.5" y1="253.1" x2="221.8" y2="240.8"/>
</g>
<g>
	<line class="st2" x1="267.1" y1="397.3" x2="279.5" y2="409.6"/>
	<line class="st2" x1="267.1" y1="409.6" x2="279.5" y2="397.3"/>
</g>
<path class="st3" d="M94.9,464.8c1,3.9-1.3,7.9-5.2,8.9c-3.9,1-7.9-1.3-8.9-5.2c-1-3.9,1.3-7.9,5.2-8.9
	C89.8,458.6,93.8,460.9,94.9,464.8z"/>
<path class="st3" d="M123.3,494.3c1,3.9-1.3,7.9-5.2,8.9c-3.9,1-7.9-1.3-8.9-5.2c-1-3.9,1.3-7.9,5.2-8.9
	C118.3,488.1,122.3,490.4,123.3,494.3z"/>
<ellipse transform="matrix(0.9724 -0.2335 0.2335 0.9724 -122.4713 97.1598)" class="st3" cx="349.1" cy="565.8" rx="7.3" ry="7.3"/>
<path class="st3" d="M501.9,366.8c1,3.9-1.3,7.9-5.2,8.9c-3.9,1-7.9-1.3-8.9-5.2c-1-3.9,1.3-7.9,5.2-8.9
	C496.8,360.5,500.9,362.9,501.9,366.8z"/>
<ellipse transform="matrix(0.9683 -0.2498 0.2498 0.9683 -40.7663 140.5705)" class="st3" cx="533.5" cy="230.9" rx="7.3" ry="7.3"/>
<path class="st3" d="M382.5,193.4c1,3.9-1.3,7.9-5.2,8.9c-3.9,1-7.9-1.3-8.9-5.2c-1-3.9,1.3-7.9,5.2-8.9
	C377.4,187.2,381.4,189.5,382.5,193.4z"/>
<path class="st3" d="M382.5,88.5c1,3.9-1.3,7.9-5.2,8.9c-3.9,1-7.9-1.3-8.9-5.2c-1-3.9,1.3-7.9,5.2-8.9
	C377.4,82.3,381.4,84.6,382.5,88.5z"/>
<path class="st3" d="M127.5,155.1c1,3.9-1.3,7.9-5.2,8.9c-3.9,1-7.9-1.3-8.9-5.2c-1-3.9,1.3-7.9,5.2-8.9
	C122.5,148.9,126.5,151.2,127.5,155.1z"/>
<path class="st3" d="M194.1,364.1c1,3.9-1.3,7.9-5.2,8.9c-3.9,1-7.9-1.3-8.9-5.2c-1-3.9,1.3-7.9,5.2-8.9
	C189,357.9,193,360.2,194.1,364.1z"/>
<path class="st3" d="M297,530.2c1,3.9-1.3,7.9-5.2,8.9c-3.9,1-7.9-1.3-8.9-5.2c-1-3.9,1.3-7.9,5.2-8.9
	C291.9,524,295.9,526.3,297,530.2z"/>
<circle class="st3" cx="364.3" cy="406.4" r="7.3"/>
<ellipse transform="matrix(0.9941 -0.1087 0.1087 0.9941 -2.0895 39.8399)" class="st3" cx="364.3" cy="39.1" rx="7.3" ry="7.3"/>
<path class="st2" d="M541.8,344.2c0.4,5.4-7.6,6-7.2,11.4c0.4,5.4,8.4,4.9,8.7,10.3c0.4,5.4-7.6,6-7.2,11.4"/>
<g>
	<polyline class="st3" points="324.5,363.6 327.3,363.6 369.4,363.6 	"/>
	<line class="st3" x1="231.6" y1="362.5" x2="278" y2="362.6"/>
	<g>
		<path class="st0" d="M277.5,363c3.9,0,3.9,9.9,7.8,9.9c3.9,0,3.9-13.1,7.8-13.1c3.9,0,3.9,13.1,7.8,13.1c3.9,0,3.9-13.1,7.8-13.1
			c3.9,0,3.9,13.1,7.8,13.1c3.9,0,3.9-9.1,7.8-9.1"/>
	</g>
	<polyline class="st4" points="362.1,358.4 370.4,363.5 362.1,369.9 	"/>
	<polyline class="st4" points="224.9,357.3 233.2,362.4 224.9,368.8 	"/>
	<polyline class="st4" points="234,357.3 242.4,362.4 234,368.8 	"/>
	<polyline class="st4" points="243.1,357.3 251.5,362.4 243.1,368.8 	"/>
</g>
<g>
	<path class="st4" d="M152.9,202.1l-19.7-9.9l18.4-9.3c0.8-0.4,1.7-0.4,2.5,0l18.4,9.3L152.9,202.1z"/>
	<path class="st4" d="M172.6,192.2v23c0,0.9-0.5,1.7-1.3,2.1L154,226c-0.7,0.3-1.5,0.3-2.1,0l-17.3-8.7c-0.8-0.4-1.3-1.2-1.3-2.1
		v-23"/>
	<line class="st4" x1="152.9" y1="202.1" x2="152.9" y2="224.7"/>
	<path class="st4" d="M158.4,184.9"/>
	<path class="st4" d="M192.7,202.1l-19.7-9.9l18.4-9.3c0.8-0.4,1.7-0.4,2.5,0l18.4,9.3L192.7,202.1z"/>
	<path class="st4" d="M212.4,192.2v23c0,0.9-0.5,1.7-1.3,2.1l-17.3,8.7c-0.7,0.3-1.5,0.3-2.1,0l-17.3-8.7c-0.8-0.4-1.3-1.2-1.3-2.1
		v-23"/>
	<line class="st4" x1="192.7" y1="202.1" x2="192.7" y2="224.7"/>
	<path class="st4" d="M198.1,184.9"/>
	<path class="st4" d="M173,168l-19.7-9.9l18.4-9.3c0.8-0.4,1.7-0.4,2.5,0l18.4,9.3L173,168z"/>
	<path class="st4" d="M192.7,158.1v23c0,0.9-0.5,1.7-1.3,2.1l-17.3,8.7c-0.7,0.3-1.5,0.3-2.1,0l-17.3-8.7c-0.8-0.4-1.3-1.2-1.3-2.1
		v-23"/>
	<line class="st4" x1="173" y1="190.6" x2="173" y2="168"/>
	<path class="st4" d="M178.4,150.8"/>
</g>
<g>
	<line class="st5" x1="417.6" y1="398.3" x2="417.6" y2="398.3"/>
	<path class="st5" d="M433.9,370.1"/>
	<path class="st0" d="M458.2,421.7h2.2c3.2,0,5.8-2.6,5.8-5.8s-2.6-5.8-5.8-5.8h-17.6"/>
	<path class="st0" d="M458.4,433.7c3.5,0,6.3-2.2,6.3-5.7c0-3.5-2.8-6.3-6.3-6.3h-15.4"/>
	<path class="st0" d="M417.6,438.8c1.8,4.6,7,4.5,7,4.5h32.8c2.5,0,4.5-2,4.5-4.5c0-2.5-2-5.1-4.5-5.1h-14.3"/>
	<path class="st0" d="M442.6,443.3c-2.5,0-4.5-2-4.5-4.5c0-2.5,2-5.1,4.5-5.1"/>
	<path class="st0" d="M402.6,444.8h9.9c2.8,0,5.2-2.3,5.2-5.2v-40.5c0-2.8-2.3-5.2-5.2-5.2h-9.6c-2.8,0-5.1,2.3-5.2,5.1l-0.2,40.5
		C397.4,442.5,399.7,444.8,402.6,444.8z"/>
	<path class="st5" d="M410.2,433.7c0,1.7-1.4,3.2-3.2,3.2s-3.2-1.4-3.2-3.2c0-1.7,1.4-3.2,3.2-3.2S410.2,432,410.2,433.7z"/>
	<path class="st4" d="M464.7,400.7"/>
	<path class="st5" d="M417.6,398.3l12.5-29.3c1.5-3.4,6-4.1,8.4-1.3c0.9,1.1,1.8,2.6,2.5,4.6c3.1,8.9-5.7,25.9-5.7,25.9l25.1,0.1
		c3.2,0,5.8,2.6,5.8,5.8c0,3.2-2.6,5.8-5.8,5.8"/>
	<path class="st4" d="M447.3,366.3c0.9,1.1,1.8,2.6,2.5,4.6c1.5,4.3,0.4,10.4-1.1,15.7"/>
	<path class="st4" d="M455.2,366.3c0.9,1.1,1.8,2.6,2.5,4.6c1.5,4.3,0.4,10.4-1.1,15.7"/>
	<path class="st5" d="M443.6,398.5c-3.2,0-5.8,2.6-5.8,5.8c0,3.2,2.6,5.8,5.8,5.8"/>
	<path class="st5" d="M443.7,410.1c-3.2,0-5.8,2.6-5.8,5.8s2.6,5.8,5.8,5.8"/>
	<path class="st5" d="M443.2,421.7c-3.3,0-6,2.7-6,6c0,3.3,2.7,6,6,6"/>
</g>
<g>
	<circle class="st6" cx="216.7" cy="405.7" r="8"/>
	<path class="st6" d="M219.7,413.2v5.7c0,1.1-0.9,2-2,2h-2.2c-1.1,0-2-0.9-2-2v-5.7"/>
	<path class="st6" d="M217.9,421.1c0,0.6-0.5,1.1-1.1,1.1s-1.1-0.5-1.1-1.1"/>
	<path class="st7" d="M181.5,431.2c10.6,0,19.4,8.7,19.4,19.4v11"/>
	<path class="st7" d="M165.5,431.2c-10.6,0-19.4,8.7-19.4,19.4v11h54.7"/>
	<path class="st7" d="M187.7,432.4c0,7.8-6.3,14.1-14.1,14.1c-7.8,0-14.1-6.3-14.1-14.1"/>
	<path class="st7" d="M181.2,428.4c0,1.8,0.1,3.2,0.1,3.2c0,4.3-3.5,7.7-7.7,7.7c-4.3,0-7.7-3.5-7.7-7.7c0,0,0.1-1.3-0.1-3.2"/>
	<path class="st7" d="M173,429.9L173,429.9c-7.1,0-12.9-5.8-12.9-12.9v-7.1c0-7.1,5.8-12.9,12.9-12.9l0,0c7.1,0,12.9,5.8,12.9,12.9
		v7.1c0,3.4-1.3,6.4-3.4,8.7C180.2,428.3,176.8,429.9,173,429.9z"/>
	<path class="st7" d="M161.1,404.9c0,0,2.7,6.8,7.3,7.6v-5.1c0,0,8.2,9.2,17.6,2.4"/>
	<line class="st7" x1="158.2" y1="452.9" x2="158.2" y2="461.5"/>
	<line class="st7" x1="188.3" y1="452.9" x2="188.3" y2="461.5"/>
	<path class="st7" d="M211.4,428.4l-3.3,11.1l16.5-11.1l0.5,0h4.1c5.5,0,9.9-4.5,9.9-9.9v-18.5c0-5.5-4.5-9.9-9.9-9.9h-25.1
		c-5.5,0-9.9,4.5-9.9,9.9v18.5c0,5.5,4.5,9.9,9.9,9.9h7.1H211.4z"/>
</g>
<g>
	<path class="st8" d="M443.1,167.9c3.6,0.8,6.9,2.2,9.9,4.1l0,0l4.3-4.3l9.5,9.5l-4.3,4.3l0,0c1.9,3,3.3,6.3,4.1,9.9l0,0h6v13.4
		h-6.1l0,0c-0.8,3.6-2.2,6.9-4.1,9.9l0,0l4.3,4.3l-9.5,9.5l-4.3-4.3l0,0c-3,1.9-6.3,3.3-9.8,4l0,0v6.2h-13.4V228l0,0
		c-3.5-0.8-6.8-2.2-9.8-4.1l0,0l-4.4,4.4l-9.5-9.5l4.4-4.4l0,0c-1.9-3-3.3-6.2-4.1-9.8l0,0h-6.3v-13.4h6.2l0,0
		c0.8-3.5,2.2-6.8,4-9.8l0,0l-4.4-4.4l9.5-9.5l4.4,4.4l0,0c3-1.9,6.3-3.3,9.8-4.1l0,0v-6.1H443L443.1,167.9L443.1,167.9z"/>
	
		<ellipse transform="matrix(0.7071 -0.7071 0.7071 0.7071 -12.1616 366.6108)" class="st0" cx="436.5" cy="198" rx="22.5" ry="22.5"/>
	<ellipse class="st0" cx="436.5" cy="198" rx="13.2" ry="22.5"/>
	<line class="st0" x1="436.5" y1="175.5" x2="436.5" y2="220.5"/>
	<line class="st0" x1="414" y1="198" x2="458.9" y2="198"/>
</g>
<g>
	<path class="st2" d="M374.3,233.9c5.4,0,5.4,8,10.9,8c5.4,0,5.4-8,10.9-8c5.4,0,5.4,8,10.9,8"/>
</g>
<g>
	<path class="st2" d="M341,257.2c5.4,0,5.4,8,10.9,8c5.4,0,5.4-8,10.9-8s5.4,8,10.9,8"/>
</g>
<g>
	<path class="st2" d="M52.1,342.3c5.4,0,5.4,8,10.9,8c5.4,0,5.4-8,10.9-8c5.4,0,5.4,8,10.9,8"/>
</g>
<path class="st3" d="M401.9,358.6l6.4,11.1c0.4,0.7-0.1,1.5-0.9,1.5h-12.8c-0.8,0-1.3-0.8-0.9-1.5l6.4-11.1
	C400.5,357.9,401.5,357.9,401.9,358.6z"/>
<path class="st3" d="M527.1,395.3l6.4,11.1c0.4,0.7-0.1,1.5-0.9,1.5h-12.8c-0.8,0-1.3-0.8-0.9-1.5l6.4-11.1
	C525.7,394.6,526.7,394.6,527.1,395.3z"/>
<path class="st3" d="M358.2,515.4l6.4,11.1c0.4,0.7-0.1,1.5-0.9,1.5h-12.8c-0.8,0-1.3-0.8-0.9-1.5l6.4-11.1
	C356.8,514.8,357.8,514.8,358.2,515.4z"/>
<path class="st3" d="M172.8,244.8l6.4,11.1c0.4,0.7-0.1,1.5-0.9,1.5h-12.8c-0.8,0-1.3-0.8-0.9-1.5l6.4-11.1
	C171.5,244.1,172.4,244.1,172.8,244.8z"/>
<path class="st3" d="M493.9,216.6l6.4,11.1c0.4,0.7-0.1,1.5-0.9,1.5h-12.8c-0.8,0-1.3-0.8-0.9-1.5l6.4-11.1
	C492.5,215.9,493.5,215.9,493.9,216.6z"/>
<path class="st3" d="M300.2,140.9l6.4,11.1c0.4,0.7-0.1,1.5-0.9,1.5h-12.8c-0.8,0-1.3-0.8-0.9-1.5l6.4-11.1
	C298.9,140.2,299.8,140.2,300.2,140.9z"/>
<g>
	<path class="st9" d="M99.2,384.1v-7.2c0-4.3-3.5-7.8-7.8-7.8H70.8c-4.3,0-7.8,3.5-7.8,7.8v7.2"/>
	<path class="st9" d="M92,384.1v-5.2c0-1.7-1.4-3.1-3.1-3.1H73.4c-1.7,0-3.1,1.4-3.1,3.1v5.2"/>
	<path class="st3" d="M108.3,434.6H53.3c-4.4,0-8-3.6-8-8v-33.9c0-4.4,3.6-8,8-8h54.9c4.4,0,8,3.6,8,8v33.9
		C116.3,431,112.7,434.6,108.3,434.6z"/>
	<path class="st0" d="M63.3,407h-5c-1.6,0-3-1.4-3-3v-5c0-1.6,1.4-3,3-3h5c1.7,0,3,1.4,3,3v5C66.3,405.6,64.9,407,63.3,407z"/>
	<path class="st0" d="M104,407h-5c-1.7,0-3-1.4-3-3v-5c0-1.6,1.3-3,3-3h5c1.7,0,3,1.4,3,3v5C107,405.6,105.7,407,104,407z"/>
	<line class="st0" x1="75.1" y1="384.6" x2="75.1" y2="434.6"/>
	<line class="st0" x1="87.2" y1="384.6" x2="87.2" y2="434.6"/>
	<line class="st0" x1="45.3" y1="401.5" x2="55.3" y2="401.5"/>
	<line class="st0" x1="66.7" y1="401.5" x2="75.1" y2="401.5"/>
	<line class="st0" x1="87.2" y1="401.5" x2="95.6" y2="401.5"/>
	<line class="st0" x1="107" y1="401.5" x2="117" y2="401.5"/>
	<line class="st2" x1="101.6" y1="407" x2="101.6" y2="412.8"/>
	<line class="st2" x1="60.8" y1="407" x2="60.8" y2="412.8"/>
</g>
<path class="st3" d="M118.1,362.6l6.4,11.1c0.4,0.7-0.1,1.5-0.9,1.5h-12.8c-0.8,0-1.3-0.8-0.9-1.5l6.4-11.1
	C116.8,361.9,117.7,361.9,118.1,362.6z"/>
<circle class="st4" cx="298.9" cy="175.8" r="7.8"/>
<path class="st4" d="M282.1,197.3L282.1,197.3c0-6.5,5.3-11.8,11.8-11.8h6.5"/>
<polyline class="st4" points="288.6,201.4 288.6,213.1 282.1,213.1 282.1,197.3 "/>
<line class="st4" x1="288.6" y1="210.6" x2="288.6" y2="241.7"/>
<line class="st4" x1="299.7" y1="217.2" x2="299.7" y2="241.8"/>
<path class="st4" d="M317.7,197.3L317.7,197.3c0-6.5-5.3-11.8-11.8-11.8h-6.5"/>
<polyline class="st4" points="311.1,201.4 311.1,213.1 317.7,213.1 317.7,197.3 "/>
<line class="st4" x1="311.1" y1="211.4" x2="311.1" y2="241.7"/>
<line class="st4" x1="250.9" y1="243.4" x2="349.1" y2="243.8"/>
<circle class="st4" cx="336.1" cy="171.7" r="6.4"/>
<path class="st4" d="M348.4,192.4L348.4,192.4c0-5.3-4.4-11.8-9.7-11.8h-5.3c-5.3,0-9.7,6.5-9.7,11.8v0"/>
<line class="st4" x1="323.7" y1="192.9" x2="348.4" y2="192.9"/>
<path class="st4" d="M342.5,210.7c0,3.5-2.9,6.4-6.4,6.4c-3.5,0-6.4-2.9-6.4-6.4c0-3.5,2.9-6.4,6.4-6.4
	C339.6,204.3,342.5,207.1,342.5,210.7z"/>
<path class="st4" d="M348.4,231.4L348.4,231.4c0-5.3-4.4-11.8-9.7-11.8h-5.3c-5.3,0-9.7,6.5-9.7,11.8l0,0"/>
<line class="st4" x1="323.7" y1="232" x2="348.4" y2="232"/>
<path class="st4" d="M269.7,171.7c0,3.5-2.9,6.4-6.4,6.4c-3.5,0-6.4-2.9-6.4-6.4c0-3.5,2.9-6.4,6.4-6.4
	C266.8,165.3,269.7,168.1,269.7,171.7z"/>
<path class="st4" d="M275.6,192.4L275.6,192.4c0-5.3-4.4-11.8-9.7-11.8h-5.3c-5.3,0-9.7,6.5-9.7,11.8v0"/>
<line class="st4" x1="250.9" y1="192.9" x2="275.6" y2="192.9"/>
<path class="st4" d="M269.7,210.7c0,3.5-2.9,6.4-6.4,6.4c-3.5,0-6.4-2.9-6.4-6.4c0-3.5,2.9-6.4,6.4-6.4
	C266.8,204.3,269.7,207.1,269.7,210.7z"/>
<path class="st4" d="M275.6,231.4L275.6,231.4c0-5.3-4.4-11.8-9.7-11.8h-5.3c-5.3,0-9.7,6.5-9.7,11.8l0,0"/>
<line class="st4" x1="250.9" y1="232" x2="275.6" y2="232"/>
<circle class="st4" cx="314.4" cy="458" r="42.9"/>
<path class="st4" d="M327.2,443.8c0,7.1-5.7,16-12.8,16c-7.1,0-12.8-8.9-12.8-16s5.7-12.8,12.8-12.8
	C321.4,431.1,327.2,436.8,327.2,443.8z"/>
<path class="st4" d="M294.9,444.3c0-10.6,8.6-19.3,19.3-19.3c10.6,0,19.3,8.6,19.3,19.3"/>
<path class="st4" d="M341.5,490.1L341.5,490.1c0-11.7-9.6-26-21.2-26h-11.7c-11.7,0-21.2,14.3-21.2,26l0,0"/>
<path class="st4" d="M338.3,481.4"/>
<path class="st4" d="M290.5,481.4"/>
<polyline class="st4" points="327.6,466.6 321.6,473.8 314.4,465.7 314.4,500.9 "/>
<path class="st4" d="M314.4,465.4"/>
<polyline class="st4" points="303,467.1 307.5,473.4 314.4,467.1 "/>
<path class="st4" d="M327.6,438.7h2.4c1.9,0,3.5,1.6,3.5,3.5v5.6c0,1.9-1.6,3.5-3.5,3.5h-3.2"/>
<path class="st4" d="M300.7,438.7h-2.4c-1.9,0-3.5,1.6-3.5,3.5v5.6c0,1.9,1.6,3.5,3.5,3.5h3.2"/>
<path class="st4" d="M329.9,451.3c0,0-9,2.2-14,0"/>
<path class="st10" d="M317.4,451.7c0,1.6-1.3,2.8-2.8,2.8s-2.8-1.3-2.8-2.8c0-1.6,1.3-2.8,2.8-2.8S317.4,450.2,317.4,451.7z"/>
<line class="st2" x1="421.7" y1="540.5" x2="421.7" y2="562.2"/>
<path class="st2" d="M465.5,512.2v8.4c0,1.1,0.9,2.1,2.1,2.1l0,0c3.1,0,5.9,2.2,6.4,5.3c0.6,3.8-2.4,7.2-6.2,7.2h-2.3v0.8
	c0,10.8-8.8,19.6-19.6,19.6v7.5"/>
<path class="st4" d="M422.1,540.8c6.8-2.3,11.9-6.6,16.2-12.2c3.8-5,6.4-11.1,7.2-17.6l0.7,0.1l21.5-0.4c4.1,0,7.5-3.4,7.5-7.5l0,0
	c0-4.1-3.4-7.5-7.5-7.5h-23.3"/>
<path class="st4" d="M413.7,539.4c-8.8,0.8-17.5-2-24.1-7.4c-4.3-3.5-7.8-8.2-9.9-13.8c-6.5-17.1,2.1-36.3,19.2-42.8
	c14.6-5.5,30.6-0.1,39.1,12.1"/>
<circle class="st4" cx="410.7" cy="506.4" r="25.1"/>
<g>
	<path class="st10" d="M409.3,524c0-0.8,0.6-1.4,1.4-1.4h0c0.8,0,1.4,0.6,1.4,1.4l0,0c0,0.8-0.6,1.4-1.4,1.4l0,0
		C409.9,525.4,409.3,524.8,409.3,524z M418.2,522.4c-0.4-0.7-0.2-1.6,0.5-2l0,0c0.7-0.4,1.6-0.2,2,0.5l0,0c0.4,0.7,0.2,1.6-0.5,2
		l0,0c-0.2,0.1-0.5,0.2-0.7,0.2l0,0C419,523.1,418.5,522.8,418.2,522.4z M401.2,522.9L401.2,522.9L401.2,522.9
		c-0.7-0.4-0.9-1.3-0.5-2l0,0c0.4-0.7,1.3-0.9,2-0.5l0,0c0.7,0.4,0.9,1.3,0.5,2l0,0c-0.3,0.5-0.8,0.7-1.3,0.7l0,0
		C401.7,523.1,401.5,523,401.2,522.9z M425.2,516.5c-0.7-0.4-0.9-1.3-0.5-2l0,0c0.4-0.7,1.3-0.9,2-0.5l0,0c0.7,0.4,0.9,1.3,0.5,2
		l0,0c-0.3,0.5-0.8,0.7-1.2,0.7l0,0C425.7,516.7,425.4,516.6,425.2,516.5z M394.3,515.9L394.3,515.9L394.3,515.9
		c-0.4-0.7-0.2-1.6,0.5-2l0,0c0.7-0.4,1.6-0.2,2,0.5l0,0c0.4,0.7,0.2,1.6-0.5,2l0,0c-0.2,0.1-0.5,0.2-0.7,0.2l0,0
		C395,516.6,394.5,516.4,394.3,515.9z M428.3,507.9c-0.8,0-1.4-0.6-1.4-1.4l0,0c0-0.8,0.7-1.4,1.4-1.4l0,0c0.8,0,1.4,0.7,1.4,1.4
		l0,0c0,0,0,0,0,0l0,0C429.8,507.3,429.1,507.9,428.3,507.9L428.3,507.9C428.3,507.9,428.3,507.9,428.3,507.9z M391.7,506.4
		C391.7,506.4,391.7,506.4,391.7,506.4L391.7,506.4C391.7,506.4,391.7,506.4,391.7,506.4L391.7,506.4c0-0.9,0.6-1.5,1.4-1.5l0,0
		c0.8,0,1.4,0.6,1.4,1.4l0,0c0,0,0,0,0,0l0,0c0,0,0,0,0,0l0,0c0,0.8-0.6,1.4-1.4,1.4l0,0C392.4,507.9,391.7,507.2,391.7,506.4z
		 M426.9,506.5L426.9,506.5L426.9,506.5L426.9,506.5L426.9,506.5z M424.6,498.5L424.6,498.5c-0.4-0.7-0.2-1.6,0.5-2l0,0
		c0.7-0.4,1.6-0.2,2,0.5l0,0c0,0,0,0,0,0l0,0c0.4,0.7,0.2,1.6-0.5,2l0,0c-0.2,0.2-0.5,0.2-0.8,0.2l0,0
		C425.3,499.2,424.8,499,424.6,498.5z M394.8,498.9c-0.7-0.4-0.9-1.3-0.5-2l0,0c0.4-0.7,1.3-0.9,2-0.5l0,0c0.7,0.4,0.9,1.3,0.5,2
		l0,0c-0.3,0.5-0.8,0.7-1.3,0.7l0,0C395.2,499,395,499,394.8,498.9z M418.6,492.6c-0.7-0.4-0.9-1.3-0.5-2l0,0c0.4-0.7,1.3-0.9,2-0.5
		l0,0l0,0l0,0c0.7,0.4,0.9,1.3,0.5,2l0,0c-0.3,0.4-0.7,0.7-1.2,0.7l0,0C419.1,492.8,418.8,492.8,418.6,492.6z M400.6,491.9
		c-0.4-0.7-0.2-1.6,0.5-2l0,0c0.7-0.4,1.6-0.2,2,0.5l0,0c0.4,0.7,0.2,1.6-0.5,2l0,0c-0.2,0.1-0.5,0.2-0.7,0.2l0,0
		C401.4,492.6,400.9,492.4,400.6,491.9z"/>
</g>
<path class="st4" d="M405.8,506.4c0-2.7,2.2-5,5-5c2.7,0,5,2.2,5,5c0,2.7-2.2,5-5,5C408,511.3,405.8,509.1,405.8,506.4z"/>
<line class="st4" x1="410.7" y1="488.2" x2="410.7" y2="501.4"/>
<line class="st4" x1="421" y1="512.2" x2="415" y2="508.8"/>
<path class="st4" d="M63.2,218.6c12.4,0,22.6,10.2,22.6,22.6V254"/>
<path class="st4" d="M44.5,218.6c-12.4,0-22.6,10.2-22.6,22.6V254h63.9"/>
<path class="st4" d="M70.5,220c0,9.1-7.4,16.5-16.5,16.5c-9.1,0-16.5-7.4-16.5-16.5"/>
<path class="st4" d="M62.9,215.3c0,2.1,0.1,3.8,0.1,3.8c0,5-4,9-9,9c-5,0-9-4-9-9c0,0,0.1-1.6-0.1-3.8"/>
<path class="st4" d="M53.3,217.1L53.3,217.1c-8.3,0-15.1-6.8-15.1-15.1v-8.3c0-8.3,6.8-15.1,15.1-15.1h0c8.3,0,15.1,6.8,15.1,15.1
	v8.3c0,3.9-1.5,7.5-4,10.2C61.7,215.2,57.7,217.1,53.3,217.1z"/>
<path class="st4" d="M39.3,187.9c0,0,3.1,7.9,8.6,8.9v-6c0,0,9.6,10.8,20.6,2.8"/>
<line class="st4" x1="36" y1="244" x2="36" y2="254"/>
<line class="st4" x1="71.2" y1="244" x2="71.2" y2="254"/>
<path class="st0" d="M65.8,185.1c4.7-4.8,11.2-7.7,18.4-7.7c14.2,0,25.7,11.5,25.7,25.7c0,14.2-11.5,25.7-25.7,25.7
	c-0.7,0-1.5,0-2.2-0.1"/>
<line class="st2" x1="85.5" y1="187.7" x2="85.5" y2="191.2"/>
<path class="st4" d="M74.5,230.9"/>
<path class="st2" d="M75.2,222.6"/>
<path class="st4" d="M79.7,208.7c0,3.1,2.5,5.6,5.6,5.6c3.1,0,5.6-2.5,5.6-5.6c0-3.1-2.5-5.6-5.6-5.6h-0.7c-3.1,0-5.6-2.5-5.6-5.6
	s2.5-5.6,5.6-5.6c3.1,0,5.6,2.5,5.6,5.6"/>
<line class="st2" x1="85.5" y1="214.6" x2="85.5" y2="218.1"/>
<ellipse transform="matrix(0.9014 -0.4329 0.4329 0.9014 -7.2749 72.8116)" class="st4" cx="156.3" cy="52.4" rx="7.5" ry="7.5"/>
<path class="st4" d="M140.2,72.9L140.2,72.9c0-6.2,5.1-11.3,11.3-11.3h6.2"/>
<polyline class="st4" points="146.5,76.8 146.5,87.9 140.2,87.9 140.2,72.9 "/>
<line class="st4" x1="146.5" y1="85.6" x2="146.5" y2="115.2"/>
<line class="st4" x1="157" y1="91.9" x2="157" y2="115.2"/>
<path class="st4" d="M174.2,72.9L174.2,72.9c0-6.2-5.1-11.3-11.3-11.3h-6.2"/>
<polyline class="st4" points="167.9,76.8 167.9,87.9 174.2,87.9 174.2,72.9 "/>
<line class="st4" x1="167.9" y1="86.4" x2="167.9" y2="115.2"/>
<line class="st4" x1="127.5" y1="116.8" x2="221" y2="117.2"/>
<path class="st4" d="M182.4,51.8l-9-1.1l9,15.6l0,0.6v4.5c0,6,4.9,10.9,10.9,10.9h20.4c6,0,10.9-4.9,10.9-10.9V43.8
	c0-6-4.9-10.9-10.9-10.9h-20.4c-6,0-10.9,4.9-10.9,10.9v7.8V51.8z"/>
<line class="st2" x1="194.5" y1="44.1" x2="212.4" y2="44.1"/>
<line class="st2" x1="194.5" y1="53.4" x2="212.4" y2="53.4"/>
<line class="st2" x1="194.5" y1="62.7" x2="212.4" y2="62.7"/>
<line class="st2" x1="194.5" y1="72" x2="212.4" y2="72"/>
<circle class="st4" cx="191" cy="498.1" r="7.4"/>
<path class="st4" d="M175.2,518.4L175.2,518.4c0-6.1,5-11.1,11.1-11.1h6.1"/>
<polyline class="st4" points="181.3,522.3 181.3,533.2 175.2,533.2 175.2,518.4 "/>
<line class="st4" x1="181.3" y1="530.9" x2="181.3" y2="560.2"/>
<line class="st4" x1="191.7" y1="537.1" x2="191.7" y2="560.2"/>
<path class="st4" d="M208.7,518.4L208.7,518.4c0-6.1-5-11.1-11.1-11.1h-6.1"/>
<polyline class="st4" points="202.5,522.3 202.5,533.2 208.7,533.2 208.7,518.4 "/>
<line class="st4" x1="202.5" y1="531.7" x2="202.5" y2="560.2"/>
<line class="st4" x1="176.1" y1="562.2" x2="260.5" y2="562.2"/>
<polyline class="st0" points="204,562.8 204,541.4 220,541.4 "/>
<polyline class="st0" points="220,562.8 220,525.8 236.1,525.8 "/>
<polyline class="st0" points="236.1,562.8 236.1,505.5 252.1,505.5 252.1,562.8 "/>
<path class="st4" d="M212,505.5c0,0,15.9,1.5,24.1-18.2"/>
<polyline class="st4" points="227.2,488.2 237.5,483.6 242.1,493.9 "/>
<path class="st4" d="M437.8,99.7h-6.4c-6.2,0-11.2-5-11.2-11.2v-1.4c0-6.2,5-11.2,11.2-11.2h6.4c6.2,0,11.2,5,11.2,11.2v1.4
	C449,94.7,443.9,99.7,437.8,99.7z"/>
<ellipse transform="matrix(0.7071 -0.7071 0.7071 0.7071 31.6724 320.051)" class="st0" cx="402.2" cy="121.8" rx="10.4" ry="10.4"/>
<ellipse transform="matrix(0.7071 -0.7071 0.7071 0.7071 40.8977 342.323)" class="st0" cx="433.7" cy="121.8" rx="10.4" ry="10.4"/>
<ellipse transform="matrix(0.7071 -0.7071 0.7071 0.7071 50.1231 364.5949)" class="st0" cx="465.2" cy="121.8" rx="10.4" ry="10.4"/>
<ellipse transform="matrix(0.2298 -0.9732 0.9732 0.2298 255.2789 434.5405)" class="st0" cx="402.2" cy="56" rx="10.4" ry="10.4"/>
<ellipse transform="matrix(0.2298 -0.9732 0.9732 0.2298 279.5396 465.1952)" class="st0" cx="433.7" cy="56" rx="10.4" ry="10.4"/>
<ellipse transform="matrix(0.2298 -0.9732 0.9732 0.2298 303.8004 495.8499)" class="st0" cx="465.2" cy="56" rx="10.4" ry="10.4"/>
<path class="st0" d="M402.2,66.4v4.3c0,4.7,2.5,9.1,6.5,11.6l11.4,7"/>
<path class="st0" d="M402.2,111.2v-4.3c0-4.7,2.5-9.1,6.5-11.6l11.4-7"/>
<path class="st0" d="M466.9,66.4v4.3c0,4.7-2.5,9.1-6.5,11.6l-11.4,7"/>
<path class="st0" d="M466.9,111.2v-4.3c0-4.7-2.5-9.1-6.5-11.6l-11.4-7"/>
<line class="st0" x1="433.7" y1="66.4" x2="433.7" y2="75.9"/>
<line class="st0" x1="433.7" y1="100.8" x2="433.7" y2="110.3"/>
<path class="st4" d="M334.5,76c0-9.5-6.5-17.6-15.2-20c8.8-2.4,15.2-10.4,15.2-20V22.5h-44.6v13.5c0,9.5,6.5,17.6,15.2,20
	c-8.8,2.4-15.2,10.4-15.2,20v16.7h44.6V76z"/>
<path class="st4" d="M333,91.3l-13.1-9.1c-0.3-0.2-0.7-0.5-1.1-0.6c-4.3-2-9.3-1.7-13.4,0.9l-13.9,8.9"/>
<path class="st4" d="M297.6,35.2c0,6.8,4.6,12.5,10.9,14.3c0,0,5.2,1.2,8.2,0c6.3-1.7,10.9-7.5,10.9-14.3"/>
<path class="st4" d="M297.6,35.8c-0.1-1.5,0.4-1.9,0.4-1.9l8.3-4.4c1.9-1,3.9-1.4,6-1.3"/>
<path class="st4" d="M327.6,35.8c0.1-1.5-0.4-1.9-0.4-1.9l-8.3-4.4c-1.9-1-3.9-1.4-6-1.3"/>
<path class="st4" d="M338,22.5h-52.4c-1.8,0-3.3-1.5-3.3-3.3v0c0-1.8,1.5-3.3,3.3-3.3H338c1.8,0,3.3,1.5,3.3,3.3v0
	C341.3,21,339.8,22.5,338,22.5z"/>
<path class="st4" d="M338,99.9h-52.4c-1.8,0-3.3-1.5-3.3-3.3V96c0-1.8,1.5-3.3,3.3-3.3H338c1.8,0,3.3,1.5,3.3,3.3v0.6
	C341.3,98.4,339.8,99.9,338,99.9z"/>
<line class="st4" x1="312.6" y1="50.4" x2="312.6" y2="59.9"/>
<line class="st4" x1="312.6" y1="67" x2="312.6" y2="71.7"/>
<g>
	<path class="st11" d="M112.6,317.5c-0.9,1.9-2,3.4-3.5,4.5c-1.4,1.1-3.2,1.9-5.1,2.3c-1.9,0.4-4.1,0.7-6.3,0.7s-4.3-0.2-6.3-0.7
		c-1.9-0.4-3.6-1.2-5.1-2.3c-1.4-1.1-2.6-2.6-3.4-4.5c-0.8-1.9-1.3-4.3-1.3-7.2v-22.8c0-0.3,0.1-0.5,0.4-0.7
		c0.2-0.2,0.5-0.3,0.8-0.3h7.4c0.3,0,0.6,0.1,0.8,0.3c0.2,0.2,0.4,0.4,0.4,0.7v22.8c0,1.3,0.1,2.4,0.3,3.3s0.6,1.7,1.1,2.3
		c0.5,0.6,1.2,1,2,1.3s1.9,0.4,3.2,0.4c1.3,0,2.3-0.1,3.2-0.4c0.8-0.3,1.5-0.8,2-1.3c0.5-0.6,0.9-1.4,1.1-2.3s0.4-2.1,0.4-3.3v-22.8
		c0-0.3,0.1-0.5,0.4-0.7c0.2-0.2,0.5-0.3,0.8-0.3h7.3c0.3,0,0.6,0.1,0.8,0.3c0.3,0.2,0.4,0.4,0.4,0.7v22.8
		C113.9,313.2,113.4,315.6,112.6,317.5z"/>
	<path class="st11" d="M148.2,313.8c0,1.4-0.3,2.7-0.8,4s-1.4,2.5-2.6,3.6c-1.2,1.1-2.8,1.9-4.7,2.6c-1.9,0.7-4.3,1-7.1,1
		c-2.3,0-4.2-0.1-5.9-0.3c-1.7-0.2-3.2-0.5-4.7-0.8c-0.3,0-0.6-0.2-0.8-0.4c-0.2-0.2-0.4-0.4-0.4-0.7v-5c0-0.4,0.1-0.6,0.3-0.8
		c0.2-0.1,0.4-0.2,0.7-0.2h0.2c0.6,0,1.3,0.1,2.3,0.2s2,0.1,3,0.2s2.1,0.1,3,0.1c1,0,1.7,0.1,2.3,0.1c1.9,0,3.2-0.3,3.9-0.9
		c0.7-0.6,1-1.5,1-2.7c0-0.8-0.3-1.4-0.8-1.9c-0.5-0.5-1.5-1.2-2.9-2l-7.7-4.2c-1.3-0.7-2.4-1.5-3.2-2.2c-0.8-0.8-1.5-1.5-2-2.3
		c-0.5-0.8-0.9-1.6-1.1-2.5c-0.2-0.9-0.3-1.8-0.3-2.7c0-1.4,0.3-2.7,0.7-3.9c0.5-1.2,1.3-2.3,2.4-3.2c1.1-0.9,2.6-1.6,4.4-2.1
		c1.8-0.5,4.1-0.8,6.8-0.8c1,0,2.1,0,3.3,0.1c1.2,0,2.3,0.1,3.4,0.2c1.1,0.1,2.1,0.2,3,0.4c0.9,0.1,1.6,0.3,2.2,0.4
		c0.2,0,0.4,0.2,0.6,0.3c0.2,0.1,0.3,0.3,0.3,0.6v5.2c0,0.2-0.1,0.4-0.2,0.6c-0.2,0.2-0.4,0.2-0.8,0.2h-0.1c-0.4,0-1.1-0.1-2-0.1
		c-0.9,0-1.9-0.1-3.1-0.2c-1.2,0-2.4-0.1-3.5-0.2c-1.2,0-2.3-0.1-3.2-0.1c-1.6,0-2.7,0.2-3.4,0.7c-0.7,0.4-1,1.1-1,2.1
		c0,0.4,0.1,0.7,0.2,1c0.1,0.3,0.3,0.5,0.6,0.8c0.3,0.2,0.7,0.5,1.1,0.8c0.5,0.3,1.1,0.6,1.8,1l7.1,3.5c2.9,1.5,4.9,3,5.9,4.7
		C147.6,309.8,148.2,311.7,148.2,313.8z"/>
	<path class="st11" d="M178.7,324.3c-1,0.1-2.3,0.3-3.9,0.4c-1.6,0.1-3.9,0.2-7,0.2c-1.8,0-3.5-0.1-5.1-0.4
		c-1.6-0.3-3.1-0.8-4.4-1.6c-1.2-0.8-2.3-1.9-3-3.3c-0.8-1.5-1.1-3.3-1.1-5.6v-17c0-2.3,0.4-4.2,1.1-5.6c0.8-1.5,1.7-2.5,3-3.3
		c1.2-0.8,2.7-1.3,4.4-1.6c1.6-0.3,3.4-0.4,5.2-0.4c1.5,0,2.8,0,3.9,0.1c1.1,0,2.2,0.1,3,0.2c0.9,0,1.6,0.1,2.2,0.2
		c0.6,0,1.2,0.1,1.6,0.2c0.8,0.1,1.1,0.4,1.1,1v4.7c0,0.3-0.1,0.5-0.4,0.7c-0.2,0.2-0.5,0.3-0.8,0.3h-11.3c-1.3,0-2.2,0.2-2.8,0.8
		c-0.6,0.5-0.8,1.4-0.8,2.7v4.6h14.5c0.3,0,0.6,0.1,0.8,0.3c0.2,0.2,0.4,0.4,0.4,0.7v4.8c0,0.3-0.1,0.5-0.4,0.7
		c-0.2,0.2-0.5,0.3-0.8,0.3h-14.5v5.4c0,1.3,0.3,2.3,0.8,2.7c0.6,0.5,1.4,0.8,2.8,0.8h11.3c0.3,0,0.6,0.1,0.8,0.3
		c0.2,0.2,0.4,0.4,0.4,0.7v4.7C179.8,323.9,179.4,324.2,178.7,324.3z"/>
	<path class="st11" d="M218.9,323.9c0,0.4-0.3,0.6-0.8,0.6h-8.6c-0.3,0-0.5-0.1-0.7-0.3c-0.2-0.2-0.3-0.4-0.5-0.7l-7.4-13l-0.6,0
		c-0.6,0-1.3,0-2.1,0c-0.8,0-1.4,0-1.9,0v13c0,0.3-0.1,0.5-0.4,0.7c-0.2,0.2-0.5,0.3-0.8,0.3h-7.3c-0.3,0-0.6-0.1-0.8-0.3
		c-0.2-0.2-0.4-0.4-0.4-0.7v-34.3c0-0.9,0.2-1.5,0.6-1.8c0.4-0.3,1-0.5,1.9-0.7c0.6-0.1,1.4-0.2,2.3-0.2c0.9,0,1.8-0.1,2.9-0.2
		c1,0,2.1-0.1,3.1-0.1c1.1,0,2.1,0,3.1,0c2.4,0,4.6,0.2,6.7,0.6c2.1,0.4,3.8,1.1,5.3,2c1.5,0.9,2.7,2.2,3.5,3.7
		c0.9,1.5,1.3,3.4,1.3,5.7v0.7c0,2.7-0.7,4.9-2.1,6.6c-1.4,1.7-3.1,2.9-5.2,3.6l8.5,14.4C218.9,323.5,218.9,323.7,218.9,323.9z
		 M207.9,298c0-1.5-0.6-2.7-1.9-3.5c-1.3-0.8-3.1-1.1-5.4-1.1c-0.2,0-0.5,0-0.9,0c-0.4,0-0.9,0-1.3,0c-0.5,0-0.9,0-1.3,0
		c-0.4,0-0.7,0-0.8,0v9.8c0.2,0,0.4,0,0.8,0c0.4,0,0.8,0,1.2,0c0.4,0,0.8,0,1.2,0c0.4,0,0.6,0,0.8,0c1.4,0,2.7-0.1,3.6-0.3
		c1-0.2,1.8-0.5,2.4-0.8c0.6-0.4,1-0.9,1.3-1.5s0.4-1.4,0.4-2.3L207.9,298L207.9,298z"/>
</g>
<g>
	<path class="st12" d="M251.7,325.1c-0.9,0.1-2.1,0.3-3.6,0.4c-1.5,0.1-3.6,0.3-6.5,0.3c-1.6,0-3.2-0.1-4.8-0.4
		c-1.5-0.3-2.9-0.8-4-1.6c-1.2-0.8-2.1-1.9-2.8-3.5c-0.7-1.5-1.1-3.3-1.1-5.7v-17.1c0-2.4,0.4-4.3,1.1-5.7c0.7-1.5,1.6-2.5,2.8-3.3
		c1.2-0.8,2.5-1.3,4.1-1.6c1.6-0.3,3.2-0.4,4.8-0.4c1.3,0,2.7,0,3.7,0.1c1.1,0,2,0.1,2.8,0.1c0.8,0.1,1.5,0.1,2,0.3
		c0.5,0.1,1.1,0.1,1.6,0.3c0.7,0.1,1.1,0.4,1.1,1.1v4.8c0,0.3-0.1,0.5-0.3,0.7c-0.3,0.3-0.4,0.3-0.7,0.3h-10.5
		c-1.2,0-2.1,0.3-2.5,0.8c-0.5,0.5-0.8,1.5-0.8,2.8v4.7h13.4c0.3,0,0.5,0.1,0.7,0.3c0.3,0.3,0.3,0.4,0.3,0.7v4.9
		c0,0.3-0.1,0.5-0.3,0.7c-0.3,0.3-0.4,0.3-0.7,0.3h-13.4v5.5c0,1.3,0.3,2.3,0.8,2.8c0.5,0.5,1.3,0.8,2.5,0.8H252
		c0.3,0,0.5,0.1,0.7,0.3c0.3,0.3,0.3,0.4,0.3,0.7v4.8C252.8,324.7,252.4,325,251.7,325.1z"/>
	<path class="st12" d="M290.4,324.8c0,0.4-0.3,0.5-0.7,0.5h-8.2c-0.4,0-0.7,0-0.8-0.1c-0.1-0.1-0.4-0.3-0.5-0.5l-6.8-10.9l-6.1,10.6
		c-0.1,0.3-0.4,0.5-0.5,0.8c-0.3,0.1-0.4,0.3-0.7,0.3h-7.7c-0.5,0-0.8-0.3-0.8-0.7c0-0.1,0-0.3,0.1-0.4l10.9-18.7l-10.9-17.8
		c-0.1-0.1-0.1-0.3-0.1-0.3c0-0.1,0.1-0.3,0.3-0.5c0.1-0.1,0.4-0.3,0.5-0.3h8.4c0.3,0,0.5,0.1,0.7,0.3c0.3,0.3,0.4,0.4,0.5,0.7
		l6.4,10.5l5.8-10.5c0.1-0.3,0.3-0.5,0.5-0.7c0.3-0.3,0.5-0.3,0.8-0.3h7.7c0.3,0,0.4,0.1,0.5,0.3c0.1,0.1,0.3,0.3,0.3,0.5
		c0,0.1,0,0.1-0.1,0.3l-10.6,18.3l11.2,18.2C290.4,324.4,290.4,324.7,290.4,324.8z"/>
	<path class="st12" d="M324.2,299.3c0,2.4-0.4,4.4-1.3,6c-0.9,1.6-2,2.9-3.5,3.9c-1.5,0.9-3.1,1.6-4.9,2s-3.7,0.5-5.7,0.5
		c-0.7,0-1.3,0-2.1,0c-0.8,0-1.5-0.1-2.1-0.1v12.6c0,0.3-0.1,0.5-0.3,0.7c-0.3,0.3-0.4,0.3-0.7,0.3h-6.6c-0.3,0-0.5-0.1-0.7-0.3
		c-0.3-0.1-0.3-0.4-0.3-0.7v-34.8c0-0.9,0.1-1.5,0.5-1.9c0.4-0.3,0.9-0.5,1.7-0.7c1.3-0.3,2.9-0.4,4.9-0.5c1.9-0.1,3.9-0.1,5.7-0.1
		c2,0,3.9,0.1,5.7,0.5s3.6,1.1,5.1,2c1.5,0.9,2.7,2.3,3.5,3.9c0.9,1.6,1.3,3.6,1.3,6v0.8H324.2z M315.3,298.8c0-1.9-0.5-3.2-1.7-4
		c-1.1-0.8-2.8-1.2-4.9-1.2c-0.1,0-0.5,0-0.9,0s-0.8,0-1.3,0c-0.4,0-0.8,0-1.2,0c-0.4,0-0.7,0-0.8,0v10.6c0.1,0,0.4,0,0.8,0
		s0.8,0,1.3,0c0.5,0,0.9,0,1.3,0c0.4,0,0.7,0,0.8,0c2.3,0,4-0.4,5.1-1.3c1.1-0.8,1.6-2.1,1.6-4L315.3,298.8L315.3,298.8z"/>
	<path class="st12" d="M352,325.1c-0.9,0.1-2.1,0.3-3.6,0.4c-1.5,0.1-3.6,0.3-6.5,0.3c-1.6,0-3.2-0.1-4.8-0.4
		c-1.5-0.3-2.9-0.8-4-1.6c-1.2-0.8-2.1-1.9-2.8-3.5c-0.7-1.5-1.1-3.3-1.1-5.7v-17.1c0-2.4,0.4-4.3,1.1-5.7c0.7-1.5,1.6-2.5,2.8-3.3
		c1.2-0.8,2.5-1.3,4.1-1.6c1.6-0.3,3.2-0.4,4.8-0.4c1.3,0,2.7,0,3.7,0.1c1.1,0,2,0.1,2.8,0.1c0.8,0.1,1.5,0.1,2,0.3
		c0.5,0.1,1.1,0.1,1.6,0.3c0.7,0.1,1.1,0.4,1.1,1.1v4.8c0,0.3-0.1,0.5-0.3,0.7c-0.3,0.3-0.4,0.3-0.7,0.3h-10.5
		c-1.2,0-2.1,0.3-2.5,0.8c-0.5,0.5-0.8,1.5-0.8,2.8v4.7h13.4c0.3,0,0.5,0.1,0.7,0.3c0.3,0.3,0.3,0.4,0.3,0.7v4.9
		c0,0.3-0.1,0.5-0.3,0.7c-0.3,0.3-0.4,0.3-0.7,0.3h-13.4v5.5c0,1.3,0.3,2.3,0.8,2.8s1.3,0.8,2.5,0.8h10.5c0.3,0,0.5,0.1,0.7,0.3
		c0.3,0.3,0.3,0.4,0.3,0.7v4.8C353,324.7,352.8,325,352,325.1z"/>
	<path class="st12" d="M389.3,324.7c0,0.4-0.3,0.7-0.8,0.7h-8c-0.3,0-0.5-0.1-0.7-0.3c-0.1-0.3-0.3-0.4-0.4-0.7l-6.9-13.2H372
		c-0.5,0-1.2,0-1.9,0c-0.7,0-1.3,0-1.7,0v13.2c0,0.3-0.1,0.5-0.3,0.7c-0.3,0.3-0.4,0.3-0.7,0.3h-6.8c-0.3,0-0.5-0.1-0.7-0.3
		c-0.3-0.3-0.3-0.4-0.3-0.7v-34.8c0-0.9,0.1-1.5,0.5-1.9c0.4-0.3,0.9-0.5,1.7-0.7c0.5-0.1,1.3-0.1,2.1-0.3c0.8-0.1,1.7-0.1,2.7-0.3
		c0.9-0.1,1.9-0.1,2.9-0.1c0.9,0,2,0,2.9,0c2.3,0,4.3,0.1,6.1,0.5s3.6,1.1,4.9,2c1.5,0.9,2.5,2.3,3.3,3.7c0.8,1.6,1.2,3.5,1.2,5.7
		v0.7c0,2.8-0.7,5.1-2,6.6c-1.3,1.7-2.9,2.9-4.8,3.7l7.8,14.6C389.3,324.3,389.3,324.6,389.3,324.7z M379.2,298.5
		c0-1.6-0.5-2.8-1.7-3.5c-1.2-0.8-2.8-1.1-5.1-1.1c-0.1,0-0.4,0-0.8,0c-0.4,0-0.8,0-1.2,0s-0.8,0-1.2,0s-0.7,0-0.8,0v10
		c0.1,0,0.4,0,0.7,0c0.4,0,0.7,0,1.1,0s0.8,0,1.1,0c0.4,0,0.5,0,0.7,0c1.3,0,2.5-0.1,3.3-0.3c0.9-0.1,1.6-0.5,2.1-0.8
		c0.5-0.4,0.9-0.9,1.2-1.5c0.3-0.7,0.4-1.3,0.4-2.3v-0.7H379.2z"/>
	<path class="st12" d="M403.4,325c-0.1,0.3-0.4,0.3-0.7,0.3h-6.9c-0.3,0-0.5-0.1-0.7-0.3c-0.1-0.3-0.3-0.4-0.3-0.7v-36.6
		c0-0.7,0.3-0.9,0.9-0.9h6.9c0.7,0,0.9,0.3,0.9,0.9v36.6C403.7,324.6,403.5,324.8,403.4,325z"/>
	<path class="st12" d="M433.5,325.1c-0.9,0.1-2.1,0.3-3.6,0.4c-1.5,0.1-3.6,0.3-6.5,0.3c-1.6,0-3.2-0.1-4.8-0.4
		c-1.5-0.3-2.9-0.8-4-1.6c-1.2-0.8-2.1-1.9-2.8-3.5c-0.7-1.5-1.1-3.3-1.1-5.7v-17.1c0-2.4,0.4-4.3,1.1-5.7c0.7-1.5,1.6-2.5,2.8-3.3
		c1.2-0.8,2.5-1.3,4.1-1.6c1.6-0.3,3.2-0.4,4.8-0.4c1.3,0,2.7,0,3.7,0.1c1.1,0,2,0.1,2.8,0.1c0.8,0.1,1.5,0.1,2,0.3
		c0.5,0.1,1.1,0.1,1.6,0.3c0.7,0.1,1.1,0.4,1.1,1.1v4.8c0,0.3-0.1,0.5-0.3,0.7c-0.3,0.3-0.4,0.3-0.7,0.3h-10.5
		c-1.2,0-2.1,0.3-2.5,0.8c-0.5,0.5-0.8,1.5-0.8,2.8v4.7h13.2c0.3,0,0.5,0.1,0.7,0.3c0.3,0.3,0.3,0.4,0.3,0.7v4.9
		c0,0.3-0.1,0.5-0.3,0.7c-0.3,0.3-0.4,0.3-0.7,0.3h-13.4v5.5c0,1.3,0.3,2.3,0.8,2.8c0.5,0.5,1.3,0.8,2.5,0.8h10.5
		c0.3,0,0.5,0.1,0.7,0.3c0.3,0.3,0.3,0.4,0.3,0.7v4.8C434.5,324.7,434.1,325,433.5,325.1z"/>
	<path class="st12" d="M471,324.7c-0.4,0.4-0.9,0.5-1.5,0.5h-5.1c-0.5,0-1.1-0.1-1.5-0.3c-0.4-0.1-0.8-0.7-1.2-1.3l-11.8-20.5
		c-0.1-0.3-0.3-0.4-0.5-0.4c-0.1,0-0.3,0.1-0.3,0.4v21c0,0.3-0.1,0.5-0.3,0.7c-0.3,0.3-0.4,0.3-0.7,0.3h-6.1c-0.3,0-0.5-0.1-0.7-0.3
		c-0.3-0.3-0.3-0.4-0.3-0.7v-35.5c0-0.5,0.1-1.1,0.5-1.5c0.4-0.4,0.8-0.5,1.5-0.5h5.2c0.5,0,0.9,0.1,1.2,0.4
		c0.3,0.3,0.7,0.7,0.9,1.2l12.2,21.4c0.1,0.3,0.3,0.4,0.4,0.4c0.1,0,0.3-0.1,0.3-0.5v-21.9c0-0.3,0.1-0.5,0.3-0.7
		c0.3-0.1,0.4-0.3,0.7-0.3h6.1c0.3,0,0.5,0.1,0.7,0.3c0.3,0.1,0.3,0.4,0.3,0.7v35.6C471.5,323.9,471.3,324.4,471,324.7z"/>
	<path class="st12" d="M501.8,324.6c-0.1,0.1-0.5,0.3-0.8,0.4c-0.5,0.1-1.5,0.4-2.9,0.5c-1.3,0.3-2.9,0.3-4.8,0.3
		c-2,0-3.9-0.3-5.7-0.8c-1.9-0.5-3.5-1.5-4.9-2.8c-1.5-1.3-2.5-3.1-3.5-5.1c-0.9-2.1-1.3-4.7-1.3-7.7v-6.5c0-3.1,0.4-5.7,1.3-7.8
		c0.8-2.1,2-3.9,3.5-5.1c1.5-1.3,3.1-2.3,4.9-2.8c1.9-0.5,3.7-0.8,5.7-0.8c1.9,0,3.5,0.1,4.8,0.3c1.3,0.3,2.4,0.4,2.9,0.5
		c0.4,0.1,0.7,0.3,0.8,0.4c0.1,0.1,0.3,0.4,0.3,0.8v5.1c0,0.7-0.3,1.1-0.9,1.1H501c-1.1-0.1-2.1-0.1-3.5-0.3
		c-1.3-0.1-2.7-0.1-4.1-0.1c-0.9,0-1.7,0.1-2.5,0.4c-0.8,0.3-1.5,0.7-2,1.5c-0.5,0.7-1.1,1.6-1.3,2.7s-0.5,2.5-0.5,4.3v6.5
		c0,1.7,0.1,3.2,0.5,4.3c0.3,1.1,0.8,2,1.3,2.7c0.5,0.7,1.3,1.2,2,1.5c0.8,0.3,1.6,0.4,2.5,0.4c1.5,0,2.8,0,4.1-0.1
		c1.3-0.1,2.5-0.1,3.5-0.3h0.1c0.7,0,0.9,0.4,0.9,1.1v5.1C502.1,324,502.1,324.3,501.8,324.6z"/>
	<path class="st12" d="M530.4,325.1c-0.9,0.1-2.1,0.3-3.6,0.4c-1.5,0.1-3.6,0.3-6.5,0.3c-1.6,0-3.2-0.1-4.8-0.4
		c-1.5-0.3-2.9-0.8-4-1.6c-1.2-0.8-2.1-1.9-2.8-3.5c-0.7-1.5-1.1-3.3-1.1-5.7v-17.1c0-2.4,0.4-4.3,1.1-5.7c0.7-1.5,1.6-2.5,2.8-3.3
		c1.2-0.8,2.5-1.3,4.1-1.6c1.6-0.3,3.2-0.4,4.8-0.4c1.3,0,2.7,0,3.7,0.1c1.1,0,2,0.1,2.8,0.1c0.8,0.1,1.5,0.1,2,0.3
		c0.5,0.1,1.1,0.1,1.6,0.3c0.7,0.1,1.1,0.4,1.1,1.1v4.8c0,0.3-0.1,0.5-0.3,0.7c-0.3,0.3-0.4,0.3-0.7,0.3h-10.5
		c-1.2,0-2.1,0.3-2.5,0.8c-0.5,0.5-0.8,1.5-0.8,2.8v4.7h13.4c0.3,0,0.5,0.1,0.7,0.3c0.3,0.3,0.3,0.4,0.3,0.7v4.9
		c0,0.3-0.1,0.5-0.3,0.7c-0.3,0.3-0.4,0.3-0.7,0.3h-13.4v5.5c0,1.3,0.3,2.3,0.8,2.8s1.3,0.8,2.5,0.8h10.5c0.3,0,0.5,0.1,0.7,0.3
		c0.3,0.3,0.3,0.4,0.3,0.7v4.8C531.4,324.7,531,325,530.4,325.1z"/>
</g>
</svg>
